<?xml version="1.0" encoding="utf-8"?>
<!-- Generator: Adobe Illustrator 19.2.1, SVG Export Plug-In . SVG Version: 6.00 Build 0)  -->
<svg version="1.1" id="Layer_1" xmlns="http://www.w3.org/2000/svg" xmlns:xlink="http://www.w3.org/1999/xlink" x="0px" y="0px"
	 viewBox="0 0 50 50" style="enable-background:new 0 0 50 50;" xml:space="preserve">
<style type="text/css">
	.st0{fill:#D31116;}
	.st1{display:none;fill:#D61016;}
	.st2{fill:#D61016;}
</style>
<g id="Container_sicherungskopie_1_">
	<polygon class="st0" points="8.4,43.6 1.6,42.6 1.6,21.2 8.4,20.2 	"/>
	<polygon class="st0" points="16.1,44.8 9.4,43.8 9.4,19.9 16.1,18.9 	"/>
</g>
<g>
	<rect x="30.9" y="50.6" class="st1" width="6.2" height="7.5"/>
	<path class="st2" d="M24.7,33.9"/>
	<polygon class="st2" points="34.6,30.4 28,30.4 24.7,33.9 31.5,33.9 	"/>
</g>
<g>
	<rect x="44" y="50.6" class="st1" width="6.2" height="7.5"/>
	<path class="st2" d="M37.9,33.9"/>
	<polygon class="st2" points="47.7,30.4 41.1,30.4 37.9,33.9 44.6,33.9 	"/>
</g>
<g>
	<path class="st0" d="M37.9,27.8C37.9,27.7,37.9,27.7,37.9,27.8L37.9,27.8L37.9,27.8z"/>
</g>
<path class="st2" d="M45.2,34.6v15l3.1-3.4V31.1"/>
<path class="st2" d="M44.2,34.6h-6.9v7.5h-6.2v-7.5h-6.5v15.2h19.6V34.6z"/>
<path class="st0" d="M30.4,25.9l0,2.6h1.2v-1.8C31.2,26.5,30.7,26.1,30.4,25.9z"/>
<path class="st0" d="M35.5,24.1v4.4h1v-5.3"/>
<path class="st0" d="M33,25.9v2.6h1.2v-3.6"/>
<g id="XMLID_1_">
	<g>
		<path class="st0" d="M29.1,25v3.5h-1.2V24C27.9,24,28.6,24.6,29.1,25z"/>
	</g>
</g>
<path id="Shape_48_" class="st0" d="M31.6,0.1c-5.5,0-10.1,4.4-9.9,9.9c0.2,7.5,9.9,14.7,9.9,14.7s9.9-7.2,9.9-14.7
	C41.6,4.5,37.1,0.1,31.6,0.1z M31.6,22.2c0,0-7.5-6.1-7.7-12.4c-0.2-4.5,3.6-7.7,7.7-7.7c4.2,0,7.5,3.2,7.5,7.7
	C39.1,16.1,31.6,22.2,31.6,22.2z"/>
<circle id="Oval_5_" class="st0" cx="31.6" cy="9.8" r="4.6"/>
<g id="XMLID_2_">
	<g>
		<path class="st0" d="M19,21.6v20.5l2.1-0.3l0-19.8L19,21.6z M17.2,18.8l7.2,1.4c0.9,1.1,1.8,2.1,2.6,2.9L26.2,23v6.5l-1.6,1.8
			v-8.6l-1.9-0.4l0.1,19.2v2.1l-5.6,1.2V18.8z"/>
	</g>
	<g>
	</g>
</g>
</svg>
