<svg viewBox="0 0 40 40"  xmlns="http://www.w3.org/2000/svg"><path d="M14 6c-1.6568 0-3-1.3432-3-3s1.3432-3 3-3 3 1.3432 3 3-1.3432 3-3 3zm-6 8c-2.2091 0-4-1.7909-4-4 0-2.2091 1.7909-4 4-4 2.2091 0 4 1.7909 4 4 0 2.2091-1.7909 4-4 4zm7.5483 2H12l9.7072-13.3168c.542-.7434 1.582-.9052 2.323-.3614L25 3.0336 15.5483 16zm16.433 0H21l7.5045-11 5.817 4.562c.7383.5791.899 1.6903.359 2.4818L31.9812 16zm6.6248 9.3327c.4996 0 .9727-.1197 1.3939-.3327v6.556c0 .7944-.6249 1.441-1.3927 1.4414l-9.2122-.0121h-.0103L28 33v-7.6552h1.3939a.8686.8686 0 0 0 .1452-.0121h9.067zm-11.354 8.9242l2.2643-.0228L37 34.2436V40H3.6747C1.6484 40 0 38.3758 0 36.3794V17c.9548.4879 2.2324.7772 3.6747.7772H37v5.7315h-7.4877a.903.903 0 0 0-.144.0115h-2.1251c-.49 0-.887.3913-.887.874v8.9889c0 .2334.0947.457.263.6212a.8942.8942 0 0 0 .624.2527h.009z" fill="#d40511" fill-rule="evenodd"/></svg>